<svg xmlns:xlink="http://www.w3.org/1999/xlink" xmlns="http://www.w3.org/2000/svg" class="c-nav__logo " viewBox="0 0 66 16" style="transform: unset;" width="66"  height="16" >
            <path xmlns="http://www.w3.org/2000/svg" d="M28.995 1.757C27.87.632 26.343 0 24.752 0H16v16h6V6h1.923c.53 0 1.04.21 1.416.586l2.07 2.07c.377.376.59.885.59 1.415V16h6V9.243C34 7.65 33.365 6.125 32.24 5l-3.245-3.243zM60 0v5.93c0 .53-.213 1.038-.59 1.413l-2.072 2.07c-.375.376-.884.587-1.415.587H53.04c.62-.96.96-2.083.96-3.243V0h-6v5.93c0 .53-.213 1.038-.59 1.413l-2.072 2.07c-.375.376-.884.587-1.415.587H42V0h-6v16h8.752c1.59 0 3.12-.632 4.244-1.757L51 12.24V16h5.752c1.59 0 3.12-.632 4.244-1.757L64.24 11C65.365 9.875 66 8.35 66 6.757V0h-6zM0 6h4v10h6V6h4V0H0" fill="#FFFFFF"></path>
        </svg>